<?xml version="1.0" encoding="UTF-8"?>
<svg id="Calque_2" data-name="Calque 2" xmlns="http://www.w3.org/2000/svg" viewBox="0 0 1510.21 606.63">
  <defs>
    <style>
      .cls-1 {
        font-family: KonkhmerSleokchher-Regular, 'Konkhmer Sleokchher';
        font-size: 381.33px;
      }

      .cls-2 {
        fill: none;
        stroke: #000;
        stroke-miterlimit: 10;
        stroke-width: 10px;
      }
    </style>
  </defs>
  <g id="Calque_1-2" data-name="Calque 1">
    <g>
      <path d="M823.75,315.13c-27.78-32.09-43.15-73.34-43.04-115.54.15-12.93,1.6-26.22,4.63-38.77.75-2.72,1.67-6.66,2.46-9.36.81-2.44,2.85-8.52,3.69-10.95,28.96-76.93,111.59-121.95,191.1-97.54,17.2,5.31,33.11,13.73,46.73,24.54-30.91-16.09-66.58-19.56-97.82-11.04-48.67,12.62-86.77,54.52-91.87,104.67-.25,1.5-.3,3.77-.39,5.3-.07,1.54-.28,3.74-.23,5.27.11,3.53-.02,7.01.42,10.49.15,1.48.25,3.72.49,5.18.29,1.65.9,6.04,1.25,7.65.59,2.38,1.15,5.13,1.76,7.49.48,1.47,1.76,5.8,2.25,7.28.66,1.66,2.09,5.37,2.73,7.04,0,0,2.15,4.52,2.15,4.52,6.85,14.64,17.76,27.64,30.26,37.2,0,0-56.57,56.57-56.57,56.57h0Z"/>
      <path d="M1080.84,58.05c64.63,73.92,55.93,191.12-24.46,249.09-30.62,22.45-69.49,32.9-106.85,28.71-26.53-2.85-52.7-13.38-73.35-29.59,23.03,11.67,48.34,16.65,73.62,14.59,70.78-5.2,126.66-69.61,114.08-140.38-4.53-26.26-18.92-50-39.63-65.85,0,0,56.57-56.57,56.57-56.57h0Z"/>
      <path class="cls-2" d="M703.12,222.42c3.35,15.51,40.47,22.03,96.24,19.72,13.82-.57,28.79-1.68,44.67-3.33,35.84-3.73,76.34-10.2,118.86-19.38,137.41-29.68,243.9-76.46,237.85-104.48-6.05-28.03-122.36-26.68-259.77,2.99-137.41,29.68-243.9,76.46-237.85,104.48Z"/>
      <path class="cls-2" d="M720.97,236.3c-8.71,7.61-12.84,14.69-11.5,20.86,3.52,16.29,44.3,22.66,104.83,19.31,16.1-.89,33.61-2.47,52.18-4.74,31.69-3.87,66.49-9.73,102.77-17.56,137.41-29.68,243.9-76.46,237.85-104.48-1.27-5.88-7.5-10.5-17.65-13.8"/>
    </g>
    <text class="cls-1" transform="translate(0 326.78)"><tspan x="0" y="0">VISI</tspan></text>
    <g>
      <path class="cls-2" d="M475.95,255.12c31.53,0,56.01,8.26,73.45,24.76,17.44,16.51,26.16,38.48,26.16,65.91,0,18.99-4.22,35.22-12.66,48.69-8.44,13.47-20.55,23.55-36.31,30.26l58.84,107.81h-64.8l-52.51-98.31h-42.83v98.31h-58.47V255.12h35.81M425.31,387.14h39.66c33.52,0,50.27-13.78,50.27-41.34,0-13.78-4.16-24.33-12.48-31.65-8.32-7.32-20.98-10.99-37.98-10.99h-39.47v83.97Z"/>
      <path class="cls-2" d="M664.94,532.56h-62.93l95.89-277.43h75.41l95.71,277.43h-62.75l-20.67-63.31h-100.17l-20.48,63.31ZM700.32,423.44h70.38l-34.07-105.01h-2.23l-34.07,105.01Z"/>
      <path class="cls-2" d="M902.16,255.12h72.24l76.34,186.38h3.17l76.53-186.38h72.8v277.43h-57.54v-180.61h-2.05l-72.06,179.31h-38.92l-71.31-179.68h-2.42v180.98h-56.79V255.12Z"/>
      <path class="cls-2" d="M1299.13,532.56h-62.93l95.89-277.43h75.41l95.71,277.43h-62.75l-20.67-63.31h-100.17l-20.48,63.31ZM1334.51,423.44h70.38l-34.07-105.01h-2.23l-34.07,105.01Z"/>
    </g>
  </g>
</svg>